 <!DOCTYPE svg PUBLIC "-//W3C//DTD SVG 1.1//EN" "http://www.w3.org/Graphics/SVG/1.1/DTD/svg11.dtd">
<svg id="f37b83dc-270e-45e9-902b-9af2320a7ce0" data-name="Layer 1" xmlns="http://www.w3.org/2000/svg" width="865.76" height="682.89" viewBox="0 0 865.76 682.89">
<defs>
<style xmlns="http://www.w3.org/1999/xhtml">*, ::after, ::before { box-sizing: border-box; }
img, svg { vertical-align: middle; }
</style>
<style xmlns="http://www.w3.org/1999/xhtml">*, body, html { -webkit-font-smoothing: antialiased; }
img, svg { max-width: 100%; }
</style>
</defs>
<path d="M579.63,252.49h-26.1A66.25,66.25,0,1,0,421,250.43c0,.69,0,1.37,0,2.06H394.93a92.36,92.36,0,0,1,184.7,0Z" fill="#ffc0ca" data-primary="true"/>
<g opacity="0.8">
<path d="M579.63,252.49h-26.1A66.25,66.25,0,1,0,421,250.43c0,.69,0,1.37,0,2.06H394.93a92.36,92.36,0,0,1,184.7,0Z" fill="#fff"/>
</g>
<path d="M603.83,252.49h-27a89.6,89.6,0,0,0-179.18,0h-27a116.56,116.56,0,0,1,233.11,0Z" fill="#ffc0ca" data-primary="true"/>
<g opacity="0.6">
<path d="M603.83,252.49h-27a89.6,89.6,0,0,0-179.18,0h-27a116.56,116.56,0,0,1,233.11,0Z" fill="#fff"/>
</g>
<path d="M630.83,252.49h-27a116.56,116.56,0,0,0-233.11,0h-27a143.55,143.55,0,1,1,287.09-3Q630.85,251,630.83,252.49Z" fill="#ffc0ca" data-primary="true"/>
<g opacity="0.4">
<path d="M630.83,252.49h-27a116.56,116.56,0,0,0-233.11,0h-27a143.55,143.55,0,1,1,287.09-3Q630.85,251,630.83,252.49Z" fill="#fff"/>
</g>
<path d="M653.61,252.49h-27a139.35,139.35,0,0,0-278.68,0H321a166.33,166.33,0,1,1,332.65-3.27Q653.63,250.86,653.61,252.49Z" fill="#ffc0ca" data-primary="true"/>
<g opacity="0.3">
<path d="M653.61,252.49h-27a139.35,139.35,0,0,0-278.68,0H321a166.33,166.33,0,1,1,332.65-3.27Q653.63,250.86,653.61,252.49Z" fill="#fff"/>
</g>
<path d="M674.66,252.49H648.57a161.29,161.29,0,0,0-322.57,0H299.91C299,149,382.06,64.34,485.55,63.38S673.7,145.54,674.66,249c0,1.16,0,2.31,0,3.47Z" fill="#ffc0ca" data-primary="true"/>
<g opacity="0.1">
<path d="M674.66,252.49H648.57a161.29,161.29,0,0,0-322.57,0H299.91C299,149,382.06,64.34,485.55,63.38S673.7,145.54,674.66,249c0,1.16,0,2.31,0,3.47Z" fill="#fff"/>
</g>
<path d="M699.83,252.49H673.72c1-103-81.74-187.22-184.71-188.17S301.8,146.06,300.84,249c0,1.16,0,2.31,0,3.46h-26.1C274.74,135.3,370.08,40,487.27,40S699.83,135.3,699.83,252.49Z" fill="#ffc0ca" data-primary="true"/>
<path d="M262,177.18a45,45,0,0,1,79.57-4.2,31.77,31.77,0,0,1,60,18.31,28.46,28.46,0,0,1,43,29.67,27.52,27.52,0,0,1,29.56,38q-103.45,4.81-207.1,1.24a10.93,10.93,0,0,1-6.24-1.51c-2-1.46-2.68-4-3.21-6.42A139.5,139.5,0,0,1,262.34,174" fill="#fff"/>
<path d="M734.81,208a37.57,37.57,0,0,0-66.5-3.53,26.57,26.57,0,0,0-50.18,15.33,23.79,23.79,0,0,0-35.93,24.79,23,23,0,0,0-24.71,31.73q86.49,4.05,173.13,1a9.12,9.12,0,0,0,5.22-1.25,8.84,8.84,0,0,0,2.68-5.35,116.61,116.61,0,0,0-4.06-65.42" fill="#fff"/>
<path d="M162.79,197.34s3.53-12.06,18.5-16.42c0,0,25.15-5.62,28.69-12.06l5.82,15-27.86,21.41-17.88.62Z" fill="#ffc0ca" data-primary="true"/>
<path d="M162.79,197.34s3.53-12.06,18.5-16.42c0,0,25.15-5.62,28.69-12.06l5.82,15-27.86,21.41-17.88.62Z" fill="#fff" opacity="0.4"/>
<path d="M164.72,237.74s-16.94-19.11,7.94-36.74a31,31,0,0,1,7.57-3.9c7.86-2.8,27.43-10.17,32.28-15.88l9.55,9.47Z" fill="#ffc0ca" data-primary="true"/>
<path d="M164.72,237.74s-16.94-19.11,7.94-36.74a31,31,0,0,1,7.57-3.9c7.86-2.8,27.43-10.17,32.28-15.88l9.55,9.47Z" fill="#fff" opacity="0.3"/>
<path d="M195.27,266.76s-2.18-6.11-11.78-6.54a24.46,24.46,0,0,1-14.84-11.57s-12-17.46,5.89-29.68l18.12-11.13s20.51-9.82,24-19.2l8.7-20.53a16.28,16.28,0,0,1,15.9-10,21.1,21.1,0,0,1,4.28.71A23.42,23.42,0,0,1,256,165.05c3.8,3.82,9.61,10.78,12.14,19.66Z" fill="#ffc0ca" data-primary="true"/>
<path d="M195.27,266.76s-2.18-6.11-11.78-6.54a24.46,24.46,0,0,1-14.84-11.57s-12-17.46,5.89-29.68l18.12-11.13s20.51-9.82,24-19.2l8.7-20.53a16.28,16.28,0,0,1,15.9-10,21.1,21.1,0,0,1,4.28.71A23.42,23.42,0,0,1,256,165.05c3.8,3.82,9.61,10.78,12.14,19.66Z" fill="#fff" opacity="0.2"/>
<path d="M341.92,211.24s16.47,11,16.05,35.92a40.63,40.63,0,0,1-7,22.57,25.17,25.17,0,0,1-6,6.37l-6.8-8.33-1-17S350.78,235.64,341.92,211.24Z" fill="#ffc0ca" data-primary="true"/>
<path d="M341.92,211.24s16.47,11,16.05,35.92a40.63,40.63,0,0,1-7,22.57,25.17,25.17,0,0,1-6,6.37l-6.8-8.33-1-17S350.78,235.64,341.92,211.24Z" fill="#fff" opacity="0.5"/>
<path d="M152.54,488.23s-4.38,31.1,23.57,34a24.24,24.24,0,0,0,3-.29c4-.62,10.72-2.56,11.28-8.66a6.79,6.79,0,0,0-3.3-6.54c-1.6-.91-3.55-1-4.89,2.12,0,0-1,2.43,2.43,3.16,0,0-6.65,0-4.89-5.57,0,0,3.52-7.77,11.43-1,0,0,11.43,11.42-3.52,22.56,0,0-22.78,14.38-44.57-16l-4.86-11.19s-6.38-17.39,5.49-35.84c0,0,9.29-14.39,26-21,0,0,12-5.66,24.86-10,0,0,47.65-17.5,48.47-47.66,0,0,1.73,16.29,3.76,21.9,0,0-.48,22.11-54.18,46.16C192.63,454.45,157.89,463.45,152.54,488.23Z" fill="#ffc0ca" data-primary="true"/>
<path d="M152.54,488.23s-4.38,31.1,23.57,34a24.24,24.24,0,0,0,3-.29c4-.62,10.72-2.56,11.28-8.66a6.79,6.79,0,0,0-3.3-6.54c-1.6-.91-3.55-1-4.89,2.12,0,0-1,2.43,2.43,3.16,0,0-6.65,0-4.89-5.57,0,0,3.52-7.77,11.43-1,0,0,11.43,11.42-3.52,22.56,0,0-22.78,14.38-44.57-16l-4.86-11.19s-6.38-17.39,5.49-35.84c0,0,9.29-14.39,26-21,0,0,12-5.66,24.86-10,0,0,47.65-17.5,48.47-47.66,0,0,1.73,16.29,3.76,21.9,0,0-.48,22.11-54.18,46.16C192.63,454.45,157.89,463.45,152.54,488.23Z" fill="#fff" opacity="0.55"/>
<path d="M243.54,368.77l-.61,19.6c-1.22,30.85-48.35,45.68-48.35,45.68-9.65,3.56-19,7.48-24.86,10a61.25,61.25,0,0,0-18.6,12.32c-21.32,20.8-13.15,43.85-12.92,44.49A51.38,51.38,0,0,1,130.65,459a53.14,53.14,0,0,1,43.17-39.74c.9-.14,1.82-.27,2.76-.38.54-.06,1.08-.1,1.62-.14C184.28,418.29,233.07,410.87,243.54,368.77Z" fill="#ffc0ca" data-primary="true"/>
<path d="M243.54,368.77l-.61,19.6c-1.22,30.85-48.35,45.68-48.35,45.68-9.65,3.56-19,7.48-24.86,10a61.25,61.25,0,0,0-18.6,12.32c-21.32,20.8-13.15,43.85-12.92,44.49A51.38,51.38,0,0,1,130.65,459a53.14,53.14,0,0,1,43.17-39.74c.9-.14,1.82-.27,2.76-.38.54-.06,1.08-.1,1.62-.14C184.28,418.29,233.07,410.87,243.54,368.77Z" fill="#fff" opacity="0.5"/>
<path d="M245.85,352.89l-2.68,18.71c-10.47,42.11-58.89,46.69-65,47.1-.54,0-1.08.08-1.62.14-.94.11-1.86.24-2.76.38A53.13,53.13,0,0,0,130.65,459a51.36,51.36,0,0,0,7.55,41.88v0L143.06,512C125.57,507.67,120,481.91,120,481.91c-10.69-46.89,14.34-67.55,14.34-67.55s10.69-11.9,34.74-15.55C169.06,398.81,230.78,391.53,245.85,352.89Z" fill="#ffc0ca" data-primary="true"/>
<path d="M245.85,352.89l-2.68,18.71c-10.47,42.11-58.89,46.69-65,47.1-.54,0-1.08.08-1.62.14-.94.11-1.86.24-2.76.38A53.13,53.13,0,0,0,130.65,459a51.36,51.36,0,0,0,7.55,41.88v0L143.06,512C125.57,507.67,120,481.91,120,481.91c-10.69-46.89,14.34-67.55,14.34-67.55s10.69-11.9,34.74-15.55C169.06,398.81,230.78,391.53,245.85,352.89Z" fill="#fff" opacity="0.45"/>
<path d="M134.32,414.36a43.4,43.4,0,0,1,7.7-19.49s7.48-12.72,22.06-18.31c0,0,3.89-2.18,14.33-4.13,0,0,21-3.81,38.16-10.92A62.32,62.32,0,0,0,232,352.29c7.13-5.78,17.59-15.43,19.63-23.76l-5.75,24.36s-6.72,28.22-60.36,42.95c-3.6,1-7.46,2.44-11.17,2.83C166.06,399.54,147.15,402.09,134.32,414.36Z" fill="#ffc0ca" data-primary="true"/>
<path d="M134.32,414.36a43.4,43.4,0,0,1,7.7-19.49s7.48-12.72,22.06-18.31c0,0,3.89-2.18,14.33-4.13,0,0,21-3.81,38.16-10.92A62.32,62.32,0,0,0,232,352.29c7.13-5.78,17.59-15.43,19.63-23.76l-5.75,24.36s-6.72,28.22-60.36,42.95c-3.6,1-7.46,2.44-11.17,2.83C166.06,399.54,147.15,402.09,134.32,414.36Z" fill="#fff" opacity="0.4"/>
<path d="M257.49,309.41s-17.22,40.08-60.71,39.14c0,0-47.25-.93-54.76,46.32,0,0,8.76-15.65,34.42-21,0,0,65.09-9.39,74.16-42.56l6.18-18.54Z" fill="#ffc0ca" data-primary="true"/>
<path d="M257.49,309.41s-17.22,40.08-60.71,39.14c0,0-47.25-.93-54.76,46.32,0,0,8.76-15.65,34.42-21,0,0,65.09-9.39,74.16-42.56l6.18-18.54Z" fill="#fff" opacity="0.35"/>
<path d="M253.81,422.79c-3.45,12.86-40.11,44-40.11,44l-.62.38A53.88,53.88,0,0,1,196.23,474C160.91,479.8,164,503.79,164,503.79c2,14.43,12.14,17.54,14.87,18.12l.24.05a24.24,24.24,0,0,1-3,.29c-28-2.92-23.57-34-23.57-34,5.35-24.78,40.09-33.78,40.09-33.78,53.7-24.05,54.18-46.16,54.18-46.16A39.52,39.52,0,0,0,253.81,422.79Z" fill="#ffc0ca" data-primary="true"/>
<path d="M253.81,422.79c-3.45,12.86-40.11,44-40.11,44l-.62.38A53.88,53.88,0,0,1,196.23,474C160.91,479.8,164,503.79,164,503.79c2,14.43,12.14,17.54,14.87,18.12l.24.05a24.24,24.24,0,0,1-3,.29c-28-2.92-23.57-34-23.57-34,5.35-24.78,40.09-33.78,40.09-33.78,53.7-24.05,54.18-46.16,54.18-46.16A39.52,39.52,0,0,0,253.81,422.79Z" fill="#fff" opacity="0.6"/>
<path d="M219.79,485c-6.34,2.78-21.26,3.83-21.26,3.83-4.86.64-8.45,1.27-11.05,1.82A23.3,23.3,0,0,0,174.73,498c-11.47,13,4.36,24,4.36,24l-.24-.05c-2.73-.58-12.88-3.69-14.87-18.12,0,0-3.07-24,32.25-29.75a52.68,52.68,0,0,0,15.31-6q1,2,2.17,4.15S216.33,477.31,219.79,485Z" fill="#ffc0ca" data-primary="true"/>
<path d="M219.79,485c-6.34,2.78-21.26,3.83-21.26,3.83-4.86.64-8.45,1.27-11.05,1.82A23.3,23.3,0,0,0,174.73,498c-11.47,13,4.36,24,4.36,24l-.24-.05c-2.73-.58-12.88-3.69-14.87-18.12,0,0-3.07-24,32.25-29.75a52.68,52.68,0,0,0,15.31-6q1,2,2.17,4.15S216.33,477.31,219.79,485Z" fill="#fff" opacity="0.65"/>
<path d="M681.29,482.88s-23.47,57.09,17.9,74.87c0,0,17.81,3.8,22.73-6.88a8.21,8.21,0,0,0-2.7-10.26c-2.57-1.72-6-1.8-8.82,5.54,0,0-1.65-11,7.35-11.19a10.81,10.81,0,0,1,9.78,6c2.06,4,3.45,10.47-.89,18.72,0,0-3.56,7.11-14.74,10a34.06,34.06,0,0,1-30.75-7.43c-7.71-6.65-15.67-17.8-14.44-35.08C666.71,527.21,663.89,509.56,681.29,482.88Z" fill="#ffc0ca" data-primary="true"/>
<path d="M681.29,482.88s-23.47,57.09,17.9,74.87c0,0,17.81,3.8,22.73-6.88a8.21,8.21,0,0,0-2.7-10.26c-2.57-1.72-6-1.8-8.82,5.54,0,0-1.65-11,7.35-11.19a10.81,10.81,0,0,1,9.78,6c2.06,4,3.45,10.47-.89,18.72,0,0-3.56,7.11-14.74,10a34.06,34.06,0,0,1-30.75-7.43c-7.71-6.65-15.67-17.8-14.44-35.08C666.71,527.21,663.89,509.56,681.29,482.88Z" fill="#fff" opacity="0.65"/>
<path d="M622.62,407.07l-.17.2c4.22-37.08-15.73-46.94-15.73-46.94-21.94-18.62-31.23.41-31.23.41-.87-1.28-1.4-2.79-2.07-3.71l-.18-.25h0c-.31-.52-1.07-1.76-2.27-3.39,28.79-26.51,51.71-1.26,51.71-1.26C645.43,377.55,624.72,404.46,622.62,407.07Z" fill="#ffc0ca" data-primary="true"/>
<path d="M622.62,407.07l-.17.2c4.22-37.08-15.73-46.94-15.73-46.94-21.94-18.62-31.23.41-31.23.41-.87-1.28-1.4-2.79-2.07-3.71l-.18-.25h0c-.31-.52-1.07-1.76-2.27-3.39,28.79-26.51,51.71-1.26,51.71-1.26C645.43,377.55,624.72,404.46,622.62,407.07Z" fill="#fff" opacity="0.35"/>
<path d="M636.06,428.86l-13.15,16.2s-27.94,32.37-.32,69.05l.31.41c-.8-.69-28.31-24.7-23.45-61.72,0,0,.46-19.71,16.89-36.61a47.45,47.45,0,0,0,6.28-9.12c2.1-2.61,22.81-29.52.06-54.95,0,0-22.92-25.25-51.71,1.26-.6-.83-1.89-1.46-2.71-2.45s-1.19-2.34-2.23-3.41c0,0,18.87-26.38,47-20.28,0,0,36.84,4.46,41.07,49.76C654.13,377,654.83,408.91,636.06,428.86Z" fill="#ffc0ca" data-primary="true"/>
<path d="M636.06,428.86l-13.15,16.2s-27.94,32.37-.32,69.05l.31.41c-.8-.69-28.31-24.7-23.45-61.72,0,0,.46-19.71,16.89-36.61a47.45,47.45,0,0,0,6.28-9.12c2.1-2.61,22.81-29.52.06-54.95,0,0-22.92-25.25-51.71,1.26-.6-.83-1.89-1.46-2.71-2.45s-1.19-2.34-2.23-3.41c0,0,18.87-26.38,47-20.28,0,0,36.84,4.46,41.07,49.76C654.13,377,654.83,408.91,636.06,428.86Z" fill="#fff" opacity="0.4"/>
<path d="M673.34,398.58s-3.43,18-21.88,39.89c0,0-35.17,33.88-24.87,78.93a27.19,27.19,0,0,1-4-3.29c-27.62-36.68.32-69.05.32-69.05l13.15-16.2C654.83,408.91,654.13,377,654.13,377c-4.23-45.3-41.07-49.76-41.07-49.76-28.16-6.1-47,20.28-47,20.28,1,1.07,2,2.12,2.8,3.11l-.16.11s-4.88-5-7.71-7.93h0c.33-.62,29.07-53.41,86.64-17.59C647.6,325.22,684.06,345,673.34,398.58Z" fill="#ffc0ca" data-primary="true"/>
<path d="M673.34,398.58s-3.43,18-21.88,39.89c0,0-35.17,33.88-24.87,78.93a27.19,27.19,0,0,1-4-3.29c-27.62-36.68.32-69.05.32-69.05l13.15-16.2C654.83,408.91,654.13,377,654.13,377c-4.23-45.3-41.07-49.76-41.07-49.76-28.16-6.1-47,20.28-47,20.28,1,1.07,2,2.12,2.8,3.11l-.16.11s-4.95-5.11-7.71-7.93h0c.33-.62,29.07-53.41,86.64-17.59C647.6,325.22,684.06,345,673.34,398.58Z" fill="#fff" opacity="0.45"/>
<path d="M687.4,412.42A100.84,100.84,0,0,1,672,440a322.75,322.75,0,0,0-24.2,36.55c-23.51,43.24-6.47,69.36-5.82,70.33l0,0-.23-.24c-11-11.23-15.1-29.23-15.1-29.23-10.3-45,24.87-78.93,24.87-78.93,18.45-21.88,21.88-39.89,21.88-39.89,10.72-53.63-25.74-73.36-25.74-73.36-57.57-35.82-86.31,17-86.64,17.59h0l-5.58-4.25a69.39,69.39,0,0,1,21.93-23.38,75.53,75.53,0,0,1,25.23-11C659.75,294.88,683,343.2,683,343.2,698.54,367.6,693.93,394.38,687.4,412.42Z" fill="#ffc0ca" data-primary="true"/>
<path d="M687.4,412.42A100.84,100.84,0,0,1,672,440a322.75,322.75,0,0,0-24.2,36.55c-23.51,43.24-6.47,69.36-5.82,70.33l0,0-.23-.24c-11-11.23-15.1-29.23-15.1-29.23-10.3-45,24.87-78.93,24.87-78.93,18.45-21.88,21.88-39.89,21.88-39.89,10.72-53.63-25.74-73.36-25.74-73.36-57.57-35.82-86.31,17-86.64,17.59h0l-5.58-4.25a69.39,69.39,0,0,1,21.93-23.38,75.53,75.53,0,0,1,25.23-11C659.75,294.88,683,343.2,683,343.2,698.54,367.6,693.93,394.38,687.4,412.42Z" fill="#fff" opacity="0.5"/>
<path d="M673.67,468.45s-42.52,49.49-11.59,88.14a58.23,58.23,0,0,0,20.86,15.85h0s-24.4-.83-41-25.54c-.65-1-17.69-27.09,5.82-70.33A322.75,322.75,0,0,1,672,440a100.84,100.84,0,0,0,15.43-27.6c6.53-18,11.14-44.82-4.45-69.22,0,0-23.2-48.32-80.41-39.05a75.53,75.53,0,0,0-25.23,11l-1.47,1s33.27-36,89.71-13.54c0,0,45.79,18.44,48.32,73.4a114.09,114.09,0,0,1-1.15,21.69S713.88,419.36,673.67,468.45Z" fill="#ffc0ca" data-primary="true"/>
<path d="M673.67,468.45s-42.52,49.49-11.59,88.14a58.23,58.23,0,0,0,20.86,15.85h0s-24.4-.83-41-25.54c-.65-1-17.69-27.09,5.82-70.33A322.75,322.75,0,0,1,672,440a100.84,100.84,0,0,0,15.43-27.6c6.53-18,11.14-44.82-4.45-69.22,0,0-23.2-48.32-80.41-39.05a75.53,75.53,0,0,0-25.23,11l-1.47,1s33.27-36,89.71-13.54c0,0,45.79,18.44,48.32,73.4a114.09,114.09,0,0,1-1.15,21.69S713.88,419.36,673.67,468.45Z" fill="#fff" opacity="0.55"/>
<path d="M618.52,622.8,617.16,630a65.45,65.45,0,0,1-11.9-.07c-7.3-.77-11.65-2.86-14.06-4.55a10.17,10.17,0,0,1-2.61-2.41c15.82-19.34,4.4-63.73,4.4-63.73-5.27-37.35-36-46.15-36-46.15C502,484.49,496.3,466.91,496.3,466.91c-10.11-7.91-37.36,1.32-37.36,1.32-53.17,19.78-102.84,6-102.84,6-10.25,8.21-35.74-.58-35.74-.58-28.71-7-67.68-7-67.68-7-7.62-.88-6.15,6.15-6.15,6.15a85.75,85.75,0,0,0,1.87,10.89c3.83,15.93,10.72,22.22,10.72,22.22,6.16,7,6.16,13.48,6.16,13.48l4.39.29a63.24,63.24,0,0,1,4.05,10.4,73.78,73.78,0,0,1,3,17.43c-5-3.22-17.58-3.81-17.58-3.81-23.14,2.64-24.9-19.34-24.9-19.34-5.86-23.43-20.51-52.15-20.51-52.15-8.79-15.53-6.44-24.9-6.44-24.9a13.87,13.87,0,0,1,5.47-10.94c7.58-5.79,20.31-4.3,20.31-4.3,9.67.88,27.83-1.46,27.83-1.46-37.8-31.06-4.1-117.78-4.1-117.78,6.15-27.25-3.81-29.59-3.81-29.59-11.66,2.68-20.41,19.11-23.87,26.67a23.11,23.11,0,0,1-9.6,10.57c-13.06,7.32-24.25-3.26-24.25-3.26-.62-.66-1.2-1.31-1.72-2-9.36-11.5-3.84-21.48-3.84-21.48,10-26.66,3.41-39.32,3.41-39.32a24.16,24.16,0,0,1-3.39-14.64,19.43,19.43,0,0,1,5.44-11.93c6.79-7,21.5-22.81,26.47-32.55,4-7.82,14.65-11.1,19.6-12.24a24.89,24.89,0,0,1,4.29-.6c39-1.84,64.6,22.24,79.36,44.62C335,242.43,340,257,340.87,261.81c2.05,12,12.6,33.7,12.6,33.7,25.49,57.57,92.73,38.68,92.73,38.68a204.44,204.44,0,0,1,35.67-8.67c58-8.37,81.23,19.21,81.23,19.21,14,13,20.52,30.07,23.29,46a137.69,137.69,0,0,1-.43,46.68c-5,22.93-2.52,38.85,2.21,49.66,6.87,15.73,18.44,20.66,18.44,20.66,18.46,11.87,12.75,32.53,12.75,32.53-.45,37.35,5.27,48.78,5.27,48.78,5.5,21.32-1.1,28.64-4.24,30.82A4.54,4.54,0,0,0,618.52,622.8Z" fill="#ffc0ca" data-primary="true"/>
<path d="M379.51,290.8s17.65,16,1.39,36.35c0,0-6.95-3-14.73-10.9C366.17,316.25,380.6,306.29,379.51,290.8Z" fill="#ffc0ca" data-primary="true"/>
<path d="M379.51,290.8s17.65,16,1.39,36.35c0,0-6.95-3-14.73-10.9C366.17,316.25,380.6,306.29,379.51,290.8Z" fill="#fff" opacity="0.65"/>
<path d="M371.15,274.42s10.41,9.22,8.19,23.11a25.45,25.45,0,0,1-4.2,10.29c-2.08,3-5.41,7.46-7.94,8.64,0,0-7.74-7.84-11.13-15.3C356.07,301.16,368.81,290,371.15,274.42Z" fill="#ffc0ca" data-primary="true"/>
<path d="M371.15,274.42s10.41,9.22,8.19,23.11a25.45,25.45,0,0,1-4.2,10.29c-2.08,3-5.41,7.46-7.94,8.64,0,0-7.74-7.84-11.13-15.3C356.07,301.16,368.81,290,371.15,274.42Z" fill="#fff" opacity="0.6"/>
<path d="M344.91,276.1s7.41,18.34,11.16,25.06c0,0,33.73-26.75,1.21-63.37C357.28,237.79,362.13,262,344.91,276.1Z" fill="#ffc0ca" data-primary="true"/>
<path d="M344.91,276.1s7.41,18.34,11.16,25.06c0,0,33.73-26.75,1.21-63.37C357.28,237.79,362.13,262,344.91,276.1Z" fill="#fff" opacity="0.55"/>
<path d="M324.19,194.4a36.62,36.62,0,0,1,21.35,28.12s2.54,17.46-8.31,28.64A156.54,156.54,0,0,0,326,229.68S334.35,211.85,324.19,194.4Z" fill="#ffc0ca" data-primary="true"/>
<path d="M324.19,194.4a36.62,36.62,0,0,1,21.35,28.12s2.54,17.46-8.31,28.64A156.54,156.54,0,0,0,326,229.68S334.35,211.85,324.19,194.4Z" fill="#fff" opacity="0.45"/>
<path d="M326.39,229.81s15.25-37.11-23.89-52.87c0,0,9.81,11,6.13,30.83C308.63,207.77,319.61,218.29,326.39,229.81Z" fill="#ffc0ca" data-primary="true"/>
<path d="M326.39,229.81s15.25-37.11-23.89-52.87c0,0,9.81,11,6.13,30.83C308.63,207.77,319.61,218.29,326.39,229.81Z" fill="#fff" opacity="0.4"/>
<path d="M277.9,165.43s17.45-.85,27.28,15.25A34.33,34.33,0,0,1,308.94,208s-5.75-6.93-18-14.3C291,193.65,290.38,175.92,277.9,165.43Z" fill="#ffc0ca" data-primary="true"/>
<path d="M277.9,165.43s17.45-.85,27.28,15.25A34.33,34.33,0,0,1,308.94,208s-5.75-6.93-18-14.3C291,193.65,290.38,175.92,277.9,165.43Z" fill="#fff" opacity="0.35"/>
<path d="M249.13,160.31s11.44-5.72,24.81,2.29a34.2,34.2,0,0,1,15.44,21.46,66.68,66.68,0,0,1,1.59,9.59s-13.49-8-22.81-8.94C268.16,184.71,262.4,166.73,249.13,160.31Z" fill="#ffc0ca" data-primary="true"/>
<path d="M249.13,160.31s11.44-5.72,24.81,2.29a34.2,34.2,0,0,1,15.44,21.46,66.68,66.68,0,0,1,1.59,9.59s-13.49-8-22.81-8.94C268.16,184.71,262.4,166.73,249.13,160.31Z" fill="#fff" opacity="0.3"/>
<path d="M185.24,158.88s-1.66,14.35,5.4,19.54c0,0,11.23-2.91,13.93-5.4C204.57,173,191.48,166.78,185.24,158.88Z" fill="#ffc0ca" data-primary="true"/>
<path d="M189.65,229.81s-8.35,6.48-6.15,15.16c0,0,.55,5.6,7.36,11a29.36,29.36,0,0,1,3.84,4.5,22.12,22.12,0,0,0-1.86-6.37s-7-11.54-.44-22.74Z" fill="#ffc0ca" data-primary="true"/>
<path d="M189.65,229.81s-8.35,6.48-6.15,15.16c0,0,.55,5.6,7.36,11a29.36,29.36,0,0,1,3.84,4.5,22.12,22.12,0,0,0-1.86-6.37s-7-11.54-.44-22.74Z" fill="#fff" opacity="0.1"/>
<path d="M525.46,574.9s-7.22-4-7.22-6.65c0,0,6.64,0,7.51-8.09,0,0,13.29-39,27.16-49.7l-3.18-8.37-28-11.85s-9.24,31.49-23.11,56.34c0,0-10.69,17.92-2.89,29.76,0,0,5.78,7.23,11.56,22.83C507.26,599.17,520.55,593.39,525.46,574.9Z" fill="#ffc0ca" data-primary="true"/>
<path d="M507.26,599.17s6.28,14.48,16.45,22.72a1.13,1.13,0,0,0,1.59-.2c3-3.89,14.23-20.08,11.51-40.43a1.14,1.14,0,0,0-.61-.85l-10.74-5.51S521.87,590.52,507.26,599.17Z" fill="#2f2e41" data-secondary="true"/>
<path d="M274.77,462.74s-5,105.13-47.71,159A37.63,37.63,0,0,0,255,630.71s-1.79-9.2,4.27-11.24a14.86,14.86,0,0,0,9.35-8.77,37.82,37.82,0,0,0,1.89-7.92s12.21-41.82,22.76-56.32c0,0,9.94-24.69,14.21-40.66a109.62,109.62,0,0,1,8.21-21.59c3.06-6,6.6-11.94,9.22-13.35Z" fill="#ffc0ca" data-primary="true"/>
<path d="M210.11,647.24s9.63-20,16.95-25.45c0,0,10.5,10,27.93,8.92,0,0-.41,12-1.51,14.85C253.48,645.56,240.14,651.77,210.11,647.24Z" fill="#2f2e41" data-secondary="true"/>
<path d="M292.19,436.39c-.36-.31-14.95-12.67-31.31-5.81-37.8-31.06-4.1-117.78-4.1-117.78,6.15-27.25-3.81-29.59-3.81-29.59-11.66,2.68-20.41,19.11-23.87,26.67a23.11,23.11,0,0,1-9.6,10.57c-13.06,7.32-24.25-3.26-24.25-3.26-.62-.66-1.2-1.31-1.72-2l-.13-.8s20.52,12.54,31.54-8.74L229.5,292s3.43-9.25,11.92-12.14a22.16,22.16,0,0,0,4.54-2.21c9.57-6,36.7-26.69,21.53-62.4,0,0,21.28,13.3,14.44,64.21,0,0-3,20.9-17.09,53.19,0,0-35.72,73.71,20.89,95-.22-.4-12.74-23,7.21-46C292.7,382.31,281.29,411.57,292.19,436.39Z" opacity="0.2"/>
<path d="M260.5,208.74a19,19,0,0,1,4.34,3.33c.17.16.34.31.49.48l.47.5.92,1,.85,1.08a12.56,12.56,0,0,1,.82,1.1l.77,1.15.38.57c.12.2.23.4.34.6l.67,1.21c.22.4.47.79.65,1.21l1.16,2.51,1,2.58a53.24,53.24,0,0,1,2.5,10.71c.12.92.26,1.82.35,2.74l.19,2.74.09,1.38c0,.45.06.91.06,1.38s0,.92,0,1.38,0,.93,0,1.39a37.91,37.91,0,0,1-7.51,20.5,58.21,58.21,0,0,1-7.32,8.2,66.82,66.82,0,0,1-8.67,6.7c1.47-1.09,2.91-2.21,4.3-3.38s2.74-2.4,4-3.68a59.07,59.07,0,0,0,7-8.3,49.6,49.6,0,0,0,2.84-4.61,35.63,35.63,0,0,0,2.18-4.94,37.67,37.67,0,0,0,2.11-10.55q0-.67.06-1.35c0-.45,0-.9,0-1.35s0-.9,0-1.35l-.08-1.36-.16-2.71c-.08-.91-.22-1.8-.32-2.7a58.67,58.67,0,0,0-2.32-10.59l-.89-2.57-1.08-2.49c-.17-.42-.4-.81-.61-1.21l-.63-1.2c-.11-.2-.2-.41-.32-.6l-.36-.57-.72-1.16a11.73,11.73,0,0,0-.77-1.12l-.79-1.1-.87-1-.43-.52c-.15-.17-.32-.33-.47-.49A20.54,20.54,0,0,0,260.5,208.74Z" opacity="0.2"/>
<path d="M269.67,519.65a36.14,36.14,0,0,0,10.74-5.78,1.3,1.3,0,0,1,1.76.13c3.56,3.85,17.25,19.45,20.19,34.54a1.37,1.37,0,0,1-.73,1.48c-2.43,1.23-10,3.68-24.93-2.54A74.09,74.09,0,0,0,269.67,519.65Z" fill="#2f2e41" data-secondary="true"/>
<path d="M276.7,547.48c-5-3.22-17.58-3.81-17.58-3.81-23.14,2.64-24.9-19.34-24.9-19.34-3.38-13.53-9.7-28.83-14.43-39.34-3.46-7.68-6.08-12.81-6.08-12.81Q212.5,470,211.54,468c-6.21-13-4.27-20.75-4.27-20.75a13.87,13.87,0,0,1,5.47-10.94l.1,0s-4.22,13.85,3.91,31.93c0,0,17.17,22.89,22.59,43.07,0,0,8.44,29.22,34.34,18.68h0A73.78,73.78,0,0,1,276.7,547.48Z" opacity="0.2"/>
<path d="M591.45,625.12l-.25.22a10.17,10.17,0,0,1-2.61-2.41c15.82-19.34,4.4-63.73,4.4-63.73-5.27-37.35-36-46.15-36-46.15C502,484.49,496.3,466.91,496.3,466.91c-10.11-7.91-37.36,1.32-37.36,1.32-53.17,19.78-102.84,6-102.84,6-10.25,8.21-35.74-.58-35.74-.58-28.71-7-67.68-7-67.68-7-7.62-.88-6.15,6.15-6.15,6.15a85.75,85.75,0,0,0,1.87,10.89l-.12,0s-13.27-15.31-4.85-24.74c0,0-.51-3.06,20.4-.77l62.24,8.42s25.3,8,39.52-6.86a11.9,11.9,0,0,0,2.5-4c1.81-4.63,7.09-16.43,16.14-23.05,0,0-11.72,17.87,5,33.11,0,0,10,10.55,34.87,5.27,0,0,9.08-.88,31.05-9.67,0,0,28.42-7,30.47-40.43,0,0,5,41.6,34.87,60.35l38.23,19.05s33.85,17.58,38.68,48.78C597.38,549.09,610.57,606.66,591.45,625.12Z" opacity="0.2"/>
<path d="M588.59,622.93s-11.64,12.28-13.9,24.45c0,0,17.4,8.78,42.17-3l.3-14.45S597.6,632.19,588.59,622.93Z" fill="#2f2e41" data-secondary="true"/>
<path d="M618.52,622.8,617.16,630a65.45,65.45,0,0,1-11.9-.07A30.8,30.8,0,0,0,617.45,602s-5.27-44.53,1.91-61.67c-.45,37.35,5.27,48.78,5.27,48.78,5.5,21.32-1.1,28.64-4.24,30.82A4.54,4.54,0,0,0,618.52,622.8Z" opacity="0.2"/>
<path d="M588.17,487.12h0c-16.41-14.95-10.25-44.24-10.25-44.24,3.45-12.93,8.3-50.65,8.49-52.11a137.69,137.69,0,0,1-.43,46.68C580.94,460.39,583.44,476.31,588.17,487.12Z" opacity="0.2"/>
<path d="M203.52,303a6.47,6.47,0,0,1-.79-2.82,3.68,3.68,0,0,1,.25-1.52,2.79,2.79,0,0,1,1-1.27,4.15,4.15,0,0,1,.34-.24l.36-.17.18-.09.1,0,.12,0a2.22,2.22,0,0,1,.43-.06,2.76,2.76,0,0,1,1.64.41,4.78,4.78,0,0,1,1.8,2.59,16.07,16.07,0,0,1,.39,5.88c0,1-.24,1.92-.38,2.87s-.4,1.89-.65,2.82c0-1,.09-1.92.15-2.87l.05-1.43c0-.48.06-.95,0-1.43s0-.94,0-1.42-.06-.93-.09-1.4a12.82,12.82,0,0,0-.48-2.71,3.89,3.89,0,0,0-1.33-2.08,1.93,1.93,0,0,0-1.09-.34l-.28,0a2.51,2.51,0,0,0-.26.1l-.3.11-.27.16a2.7,2.7,0,0,0-1.19,2.16A7.92,7.92,0,0,0,203.52,303Z" opacity="0.2"/>
<path d="M244,182.58a42.37,42.37,0,0,0-13.09,4.25,28.28,28.28,0,0,0-4.86,3.26,19.71,19.71,0,0,0-4.4,5.22s-12.34-14.82-14.7-33.87h0a46,46,0,0,1,1.47-19.05,31.38,31.38,0,0,0,8.45,12.13,37.56,37.56,0,0,0,4.45,3.47,61,61,0,0,1,6.76,5.1C233.68,168,243.1,177,244,182.58Z" fill="#ffc0ca" data-primary="true"/>
<path d="M229.11,191a7.15,7.15,0,0,1-3.08-.87c-9.34-4.82-18.94-28.24-19.1-28.65h0a46,46,0,0,1,1.47-19.05,31.38,31.38,0,0,0,8.45,12.13c7.63,9.69,11.85,24.08,11.85,24.08a34.38,34.38,0,0,1,2.2,8.23C231.32,191.27,229.11,191,229.11,191Z" opacity="0.2"/>
<path d="M236.89,171.47a30.84,30.84,0,0,1,2.69,16.14s-1.07,9.26,3.86,11.52a1.6,1.6,0,0,0,2.19-1c.55-1.85.78-6.08-1.66-15.55C244,182.58,242.94,177.73,236.89,171.47Z" fill="#fff" opacity="0.2"/>
<path d="M245.63,198.13s15.63-25.3,63.4,9.55c0,0-26.59-29.1-65.06-25.1C244,182.58,247,193.66,245.63,198.13Z" opacity="0.2"/>
<path d="M226.49,200.17,207.2,221l-7.69,12.93c-7.11,8.8-6.41,20.53-6.41,20.53A24.09,24.09,0,0,1,189.7,240a19.4,19.4,0,0,1,5.45-12.1c6.78-7,21.5-22.82,26.47-32.56Z" opacity="0.2"/>
<path d="M179.61,220.7s14,16.49,22.76,11.6c0,0,7.78-5.8,3.51-14.2,0,0-13.29-11.91-28.86-14,0,0-7-7.94-16.19-7.94,0,0-5.8-7.94-14.36-7.18,0,0-5.71-7.25-13.4-7.25,0,0-4.84-6.37-11.43-5.27,0,0-5.71-6.59-11-5.71,0,0-4.17-5.72-9-5.06,0,0-9.67-7.91-16.48-8.13,0,0,12.31,10.11,16.26,11.87,0,0,5.83,6.92,10.66,5.71,0,0,4.5,7.58,10,5.93,0,0,5.16,9.23,13.18,9.34,0,0,2.13,7.29,13.55,8.46,0,0,4,7.91,12.89,9.09C161.7,207.91,164.7,215.91,179.61,220.7Z" fill="#2f2e41" data-secondary="true"/>
<path d="M101.64,165.64a2.94,2.94,0,0,1,.42.92,4.1,4.1,0,0,1,.17,1,2.76,2.76,0,0,1-.16,1,1.33,1.33,0,0,1-.65.8,2.64,2.64,0,0,0,.27-.9,5.51,5.51,0,0,0,0-.91C101.7,167,101.63,166.32,101.64,165.64Z" opacity="0.2"/>
<path d="M110.65,170.7a3,3,0,0,1,.78.91,5.14,5.14,0,0,1,.47,1.11,5.29,5.29,0,0,1,.18,2.37c-.14-.38-.24-.75-.35-1.12s-.2-.74-.32-1.1A18.69,18.69,0,0,0,110.65,170.7Z" opacity="0.2"/>
<path d="M121.64,176.41a3.87,3.87,0,0,1,.65,1,5.38,5.38,0,0,1,.33,1.19,3.26,3.26,0,0,1-.54,2.38,9.73,9.73,0,0,0,.1-1.17,7.27,7.27,0,0,0-.07-1.14C122,178,121.82,177.21,121.64,176.41Z" opacity="0.2"/>
<path d="M133.07,181.68a8.69,8.69,0,0,1,2.32,4,11.33,11.33,0,0,1,.23,1.16,7.71,7.71,0,0,1,0,1.18,7.14,7.14,0,0,1-.41,2.3,14.6,14.6,0,0,0,0-2.29,10.42,10.42,0,0,0-.38-2.22,13.94,13.94,0,0,0-.75-2.14A18.77,18.77,0,0,0,133.07,181.68Z" opacity="0.2"/>
<path d="M146.47,188.93a14.13,14.13,0,0,1,2.21,4.71,13.18,13.18,0,0,1,.4,2.59,9,9,0,0,1-.27,2.59,18.14,18.14,0,0,0-.13-2.56,21.1,21.1,0,0,0-.5-2.49c-.21-.82-.48-1.63-.76-2.44S146.82,189.73,146.47,188.93Z" opacity="0.2"/>
<path d="M160.83,196.11A22.11,22.11,0,0,1,163,202a11,11,0,0,1,.24,3.19,4.51,4.51,0,0,1-.41,1.56,2.3,2.3,0,0,1-1.14,1.12,2.43,2.43,0,0,0,.91-1.22,4.65,4.65,0,0,0,.24-1.49,13.8,13.8,0,0,0-.34-3.06c-.2-1-.47-2-.76-3S161.15,197.11,160.83,196.11Z" opacity="0.2"/>
<path d="M177,204.05A27.84,27.84,0,0,1,179,208a27.31,27.31,0,0,1,1.32,4.17,16.84,16.84,0,0,1,.46,4.36,8.55,8.55,0,0,1-1.12,4.21,9,9,0,0,0,.59-2.07,11,11,0,0,0,.14-2.14,21.09,21.09,0,0,0-.57-4.25,39.88,39.88,0,0,0-1.19-4.14c-.23-.68-.48-1.36-.75-2S177.3,204.72,177,204.05Z" opacity="0.2"/>
<path d="M196,211.3a23.26,23.26,0,0,1,3.38,4.38,27.09,27.09,0,0,1,2.43,5c.16.43.32.87.44,1.32s.28.88.4,1.33c.18.91.43,1.81.52,2.73.06.46.14.92.17,1.38l.08,1.38a10.75,10.75,0,0,1,0,1.39q0,.69-.06,1.38a34.51,34.51,0,0,0-.57-5.47c-.14-.9-.39-1.78-.6-2.66s-.51-1.76-.85-2.6a34,34,0,0,0-2.29-5c-.21-.4-.45-.79-.68-1.18s-.49-.78-.74-1.16C197.14,212.76,196.59,212,196,211.3Z" opacity="0.2"/>
<path d="M481.87,325.52c-36,14.73-58.64,16.3-58.64,16.3C358.84,349.77,342.94,285,342.94,285c-9.14-32.59-18.28-57.63-18.28-57.63l.21-.26C335,242.43,340,257,340.87,261.81c2.05,12,12.6,33.7,12.6,33.7,25.49,57.57,92.73,38.68,92.73,38.68A204.44,204.44,0,0,1,481.87,325.52Z" opacity="0.2"/>
<path d="M672.9,499.38s-22.19,51.35,23,70.68a16,16,0,0,1-13,2.38h0a58.23,58.23,0,0,1-20.86-15.85c-30.93-38.65,11.59-88.14,11.59-88.14,40.21-49.09,39.05-70.75,39.05-70.75A114.09,114.09,0,0,0,713.87,376c1.71,5.47,7.76,30.83-12.36,67.31Z" fill="#ffc0ca" data-primary="true"/>
<path d="M672.9,499.38s-22.19,51.35,23,70.68a16,16,0,0,1-13,2.38h0a58.23,58.23,0,0,1-20.86-15.85c-30.93-38.65,11.59-88.14,11.59-88.14,40.21-49.09,39.05-70.75,39.05-70.75A114.09,114.09,0,0,0,713.87,376c1.71,5.47,7.76,30.83-12.36,67.31Z" fill="#fff" opacity="0.6"/>
</svg>